<svg width="27" height="27" viewBox="0 0 27 27" fill="none" xmlns="http://www.w3.org/2000/svg">
<circle cx="13.2516" cy="12.9063" r="12.9063" fill="black"/>
<path d="M7.70898 16.6602V15.5C7.8418 15.6172 8 15.7227 8.18359 15.8164C8.37109 15.9102 8.56641 15.9902 8.76953 16.0566C8.97656 16.1191 9.18359 16.168 9.39062 16.2031C9.59766 16.2383 9.78906 16.2559 9.96484 16.2559C10.5703 16.2559 11.0215 16.1445 11.3184 15.9219C11.6191 15.6953 11.7695 15.3711 11.7695 14.9492C11.7695 14.7227 11.7188 14.5254 11.6172 14.3574C11.5195 14.1895 11.3828 14.0371 11.207 13.9004C11.0312 13.7598 10.8223 13.627 10.5801 13.502C10.3418 13.373 10.084 13.2383 9.80664 13.0977C9.51367 12.9492 9.24023 12.7988 8.98633 12.6465C8.73242 12.4941 8.51172 12.3262 8.32422 12.1426C8.13672 11.959 7.98828 11.752 7.87891 11.5215C7.77344 11.2871 7.7207 11.0137 7.7207 10.7012C7.7207 10.3184 7.80469 9.98633 7.97266 9.70508C8.14062 9.41992 8.36133 9.18555 8.63477 9.00195C8.9082 8.81836 9.21875 8.68164 9.56641 8.5918C9.91797 8.50195 10.2754 8.45703 10.6387 8.45703C11.4668 8.45703 12.0703 8.55664 12.4492 8.75586V9.86328C11.9531 9.51953 11.3164 9.34766 10.5391 9.34766C10.3242 9.34766 10.1094 9.37109 9.89453 9.41797C9.67969 9.46094 9.48828 9.5332 9.32031 9.63477C9.15234 9.73633 9.01562 9.86719 8.91016 10.0273C8.80469 10.1875 8.75195 10.3828 8.75195 10.6133C8.75195 10.8281 8.79102 11.0137 8.86914 11.1699C8.95117 11.3262 9.07031 11.4688 9.22656 11.5977C9.38281 11.7266 9.57227 11.8516 9.79492 11.9727C10.0215 12.0938 10.2812 12.2266 10.5742 12.3711C10.875 12.5195 11.1602 12.6758 11.4297 12.8398C11.6992 13.0039 11.9355 13.1855 12.1387 13.3848C12.3418 13.584 12.502 13.8047 12.6191 14.0469C12.7402 14.2891 12.8008 14.5664 12.8008 14.8789C12.8008 15.293 12.7188 15.6445 12.5547 15.9336C12.3945 16.2188 12.1758 16.4512 11.8984 16.6309C11.625 16.8105 11.3086 16.9395 10.9492 17.0176C10.5898 17.0996 10.2109 17.1406 9.8125 17.1406C9.67969 17.1406 9.51562 17.1289 9.32031 17.1055C9.125 17.0859 8.92578 17.0547 8.72266 17.0117C8.51953 16.9727 8.32617 16.9238 8.14258 16.8652C7.96289 16.8027 7.81836 16.7344 7.70898 16.6602ZM19.0711 17H18.1102V16.0625H18.0868C17.6688 16.7812 17.0536 17.1406 16.2411 17.1406C15.6434 17.1406 15.1747 16.9824 14.8348 16.666C14.4989 16.3496 14.3309 15.9297 14.3309 15.4062C14.3309 14.2852 14.9911 13.6328 16.3114 13.4492L18.1102 13.1973C18.1102 12.1777 17.6981 11.668 16.8739 11.668C16.1512 11.668 15.4989 11.9141 14.9169 12.4062V11.4219C15.5067 11.0469 16.1864 10.8594 16.9559 10.8594C18.3661 10.8594 19.0711 11.6055 19.0711 13.0977V17ZM18.1102 13.9648L16.6629 14.1641C16.2176 14.2266 15.8817 14.3379 15.6551 14.498C15.4286 14.6543 15.3153 14.9336 15.3153 15.3359C15.3153 15.6289 15.4188 15.8691 15.6258 16.0566C15.8368 16.2402 16.1161 16.332 16.4637 16.332C16.9403 16.332 17.3329 16.166 17.6415 15.834C17.954 15.498 18.1102 15.0742 18.1102 14.5625V13.9648Z" fill="white"/>
</svg>
