<svg width="27" height="27" viewBox="0 0 27 27" fill="none" xmlns="http://www.w3.org/2000/svg">
<circle cx="13.7142" cy="12.9063" r="12.9063" fill="black"/>
<path d="M7.87177 16.7875V15.6274C8.00458 15.7446 8.16278 15.85 8.34637 15.9438C8.53387 16.0375 8.72919 16.1176 8.93231 16.184C9.13934 16.2465 9.34637 16.2953 9.55341 16.3305C9.76044 16.3657 9.95184 16.3832 10.1276 16.3832C10.7331 16.3832 11.1843 16.2719 11.4811 16.0493C11.7819 15.8227 11.9323 15.4985 11.9323 15.0766C11.9323 14.85 11.8815 14.6528 11.78 14.4848C11.6823 14.3168 11.5456 14.1645 11.3698 14.0278C11.194 13.8871 10.985 13.7543 10.7429 13.6293C10.5046 13.5004 10.2468 13.3657 9.96942 13.225C9.67645 13.0766 9.40302 12.9262 9.14911 12.7739C8.8952 12.6215 8.6745 12.4536 8.487 12.27C8.2995 12.0864 8.15106 11.8793 8.04169 11.6489C7.93622 11.4145 7.88348 11.1411 7.88348 10.8286C7.88348 10.4457 7.96747 10.1137 8.13544 9.83246C8.30341 9.5473 8.52411 9.31293 8.79755 9.12933C9.07098 8.94574 9.38153 8.80902 9.72919 8.71918C10.0807 8.62933 10.4382 8.58441 10.8015 8.58441C11.6296 8.58441 12.2331 8.68402 12.612 8.88324V9.99066C12.1159 9.64691 11.4792 9.47504 10.7018 9.47504C10.487 9.47504 10.2722 9.49847 10.0573 9.54535C9.84247 9.58832 9.65106 9.66058 9.48309 9.76215C9.31512 9.86371 9.17841 9.99457 9.07294 10.1547C8.96747 10.3149 8.91473 10.5102 8.91473 10.7407C8.91473 10.9555 8.9538 11.1411 9.03192 11.2973C9.11395 11.4536 9.23309 11.5961 9.38934 11.725C9.54559 11.8539 9.73505 11.9789 9.9577 12.1C10.1843 12.2211 10.444 12.3539 10.737 12.4985C11.0378 12.6469 11.3229 12.8032 11.5925 12.9672C11.862 13.1313 12.0983 13.3129 12.3015 13.5121C12.5046 13.7114 12.6647 13.9321 12.7819 14.1743C12.903 14.4164 12.9636 14.6938 12.9636 15.0063C12.9636 15.4203 12.8815 15.7719 12.7175 16.061C12.5573 16.3461 12.3386 16.5786 12.0612 16.7582C11.7878 16.9379 11.4714 17.0668 11.112 17.145C10.7526 17.227 10.3737 17.268 9.97528 17.268C9.84247 17.268 9.67841 17.2563 9.48309 17.2328C9.28778 17.2133 9.08856 17.1821 8.88544 17.1391C8.68231 17.1 8.48895 17.0512 8.30536 16.9926C8.12567 16.9301 7.98114 16.8618 7.87177 16.7875ZM19.7906 17.1274H18.8296V16.1782H18.8062C18.4078 16.9047 17.7906 17.268 16.9546 17.268C15.5249 17.268 14.8101 16.4164 14.8101 14.7133V11.1274H15.7652V14.561C15.7652 15.8266 16.2496 16.4594 17.2183 16.4594C17.6871 16.4594 18.0718 16.2875 18.3726 15.9438C18.6773 15.5961 18.8296 15.143 18.8296 14.5844V11.1274H19.7906V17.1274Z" fill="white"/>
</svg>
