<svg width="26" height="27" viewBox="0 0 26 27" fill="none" xmlns="http://www.w3.org/2000/svg">
<circle cx="12.9063" cy="12.9063" r="12.9063" fill="white"/>
<path d="M17.5677 17.1274H16.5892V11.4907C16.5892 11.0453 16.6165 10.5004 16.6712 9.8559H16.6478C16.554 10.2348 16.47 10.5063 16.3958 10.6703L13.5247 17.1274H13.0443L10.179 10.7172C10.097 10.5297 10.013 10.2426 9.92708 9.8559H9.90364C9.93489 10.1918 9.95052 10.7407 9.95052 11.5024V17.1274H9.0013V8.72504H10.3021L12.8802 14.5844C13.0794 15.0336 13.2083 15.3696 13.2669 15.5922H13.3021C13.47 15.1313 13.6048 14.7875 13.7064 14.561L16.3372 8.72504H17.5677V17.1274Z" fill="black"/>
</svg>
