<svg width="27" height="27" viewBox="0 0 27 27" fill="none" xmlns="http://www.w3.org/2000/svg">
<circle cx="13.8314" cy="12.9063" r="12.9063" fill="white"/>
<path d="M19.1136 8.72504L16.7406 17.1274H15.5863L13.8578 10.9868C13.7836 10.725 13.7386 10.4399 13.723 10.1313H13.6996C13.6761 10.4203 13.6254 10.7016 13.5472 10.975L11.807 17.1274H10.6644L8.20349 8.72504H9.28748L11.0746 15.1703C11.1488 15.4399 11.1957 15.7211 11.2152 16.0141H11.2445C11.264 15.8071 11.3246 15.5258 11.4261 15.1703L13.2836 8.72504H14.2269L16.0082 15.2172C16.0707 15.4399 16.1176 15.7016 16.1488 16.0024H16.1722C16.1879 15.7993 16.2406 15.5297 16.3304 15.1938L18.0472 8.72504H19.1136Z" fill="black"/>
</svg>
