<svg width="26" height="27" viewBox="0 0 26 27" fill="none" xmlns="http://www.w3.org/2000/svg">
<circle cx="12.9063" cy="12.9063" r="12.9063" fill="black"/>
<path d="M18.1885 8.72504L15.8155 17.1274H14.6612L12.9327 10.9868C12.8584 10.725 12.8135 10.4399 12.7979 10.1313H12.7745C12.751 10.4203 12.7002 10.7016 12.6221 10.975L10.8819 17.1274H9.7393L7.27837 8.72504H8.36235L10.1495 15.1703C10.2237 15.4399 10.2706 15.7211 10.2901 16.0141H10.3194C10.3389 15.8071 10.3995 15.5258 10.501 15.1703L12.3584 8.72504H13.3018L15.0831 15.2172C15.1456 15.4399 15.1924 15.7016 15.2237 16.0024H15.2471C15.2627 15.7993 15.3155 15.5297 15.4053 15.1938L17.1221 8.72504H18.1885Z" fill="white"/>
</svg>
